<?xml version="1.0" encoding="UTF-8"?><svg id="Layer_2" xmlns="http://www.w3.org/2000/svg" viewBox="0 0 576.63 576.7"><defs><style>.cls-1{fill:#b84a01;}.cls-2{fill:#90cc20;}.cls-3{fill:#ffbc0f;}</style></defs><g id="Layer_5"><path class="cls-1" d="M304,450.85l-67.28,116.54c-3.33,5.76-9.47,9.31-16.12,9.31H86.03c-6.65,0-12.79-3.55-16.12-9.31L2.63,450.85c-3.33-5.76-3.33-12.85,0-18.61l67.28-116.54c3.33-5.76,9.47-9.31,16.12-9.31H220.59c-52.65,21.14-82.51,79.38-67.87,136.79,56.42-14.91,91.68-70.28,83.8-127.8,.08,.11,.14,.21,.2,.32l67.28,116.54c3.33,5.76,3.33,12.85,0,18.61Z"/><path class="cls-2" d="M574.14,301l-67.29,116.54c-3.32,5.75-9.47,9.3-16.11,9.3h-134.57c-6.65,0-12.8-3.55-16.12-9.3l-65.55-113.53c45.08,33.39,109.59,28.91,151.02-12.69-42.25-41.34-109.02-42.78-154.43-5.09,.4-1.33,.96-2.62,1.67-3.85l67.29-116.54c3.32-5.75,9.47-9.3,16.12-9.3h134.57c6.64,0,12.79,3.55,16.11,9.3l67.29,116.54c3.32,5.76,3.32,12.86,0,18.62Z"/><path class="cls-3" d="M303.86,144.46l-66.19,114.65c6.73-55.58-28.91-109.38-85.43-124.93-14.98,56.39,15.63,114.41,69.46,136.08-.41,.03-.82,.04-1.24,.04H85.89c-6.65,0-12.79-3.54-16.12-9.3L2.49,144.46c-3.32-5.76-3.32-12.85,0-18.61L69.77,9.31c3.33-5.76,9.47-9.31,16.12-9.31H220.46c6.65,0,12.79,3.55,16.12,9.31l67.28,116.54c3.33,5.76,3.33,12.85,0,18.61Z"/></g></svg>