<svg xmlns="http://www.w3.org/2000/svg" viewBox="0 0 632.82 249.92"><defs><style>.cls-1{fill:gray;}.cls-2,.cls-7{fill:#a8d713;}.cls-2,.cls-8{stroke:#a8d713;}.cls-2,.cls-4,.cls-6,.cls-8{stroke-miterlimit:10;}.cls-2{stroke-width:0.5px;}.cls-3{fill:#b84901;}.cls-4,.cls-6,.cls-8{fill:none;}.cls-4{stroke:#b84901;}.cls-5{fill:#ffbc0e;}.cls-6{stroke:#ffbc0e;}</style></defs><title>Asset 2</title><g id="Layer_2" data-name="Layer 2"><g id="Layer_1-2" data-name="Layer 1"><path class="cls-1" d="M.25,1h15.4Q27.77,1,34,6t6.24,14q0,10.69-10.64,16.46,17.1,3.7,17.1,18.73A17.33,17.33,0,0,1,40,69.57q-6.69,5.31-18.13,5.31H.25ZM6,5.72V35.19H13.9q20.16,0,20.17-14.71T13.69,5.72ZM6,40V70.12H21.26q9.47,0,14.39-4.07a13.43,13.43,0,0,0,4.92-10.9Q40.57,40,18.77,40Z"/><path class="cls-1" d="M71.84,1V74.88H66.12V1Z"/><path class="cls-1" d="M133.3,0a38.46,38.46,0,0,1,27.79,11,36.06,36.06,0,0,1,11.4,26.92,36,36,0,0,1-11.4,26.85,38.46,38.46,0,0,1-27.79,11,38.22,38.22,0,0,1-27.69-11A36.06,36.06,0,0,1,94.27,37.95,36.15,36.15,0,0,1,105.61,11,38.22,38.22,0,0,1,133.3,0Zm.21,70.55A31.75,31.75,0,0,0,156.8,61.1a31.41,31.41,0,0,0,9.49-23.15A32.35,32.35,0,0,0,133.51,5.29a32.17,32.17,0,0,0-23.46,9.45,31.27,31.27,0,0,0-9.6,23.21,31.24,31.24,0,0,0,9.6,23.15A32.16,32.16,0,0,0,133.51,70.55Z"/><path class="cls-1" d="M34.22,120.82,62.31,86.49h5.79v73.93H62.32V94.85L34.2,129.4,6,94.85v65.57H.25V86.49H6Z"/><path class="cls-1" d="M99.36,86.49v73.93H93.64V86.49Z"/><path class="cls-1" d="M158.62,120.82l28.08-34.33h5.78v73.93h-5.77V94.85L158.59,129.4,130.36,94.85v65.57h-5.72V86.49h5.72Z"/><path class="cls-1" d="M223.76,86.49v73.93H218V86.49Z"/><path class="cls-1" d="M310.79,91.73V98q-13.44-7.15-26.35-7.15a31.05,31.05,0,0,0-23,9.37q-9.27,9.37-9.26,23.39,0,14.18,9.32,23.33t23.76,9.16q12.06,0,26.3-7.57v5.93a55.69,55.69,0,0,1-26.19,6.93q-16.88,0-28.13-10.83t-11.25-27a35.92,35.92,0,0,1,11.48-27.14,38.35,38.35,0,0,1,27.35-10.9Q297.3,85.54,310.79,91.73Z"/><path class="cls-1" d="M331.27,86.49h18.94q11.91,0,18.2,5.15t6.3,14q0,12.81-14.08,18,3.65,1.75,9.85,11.27l16.72,25.56h-6.76l-12.88-20.27q-6.45-10.16-10-12.68T347,125H337v35.46h-5.72ZM337,91.25v28.95h12.27q9.37,0,14.32-3.78t4.95-10.72a12.58,12.58,0,0,0-5-10.64q-5-3.8-14.45-3.81Z"/><path class="cls-1" d="M452.23,86.49,423.5,120.73v39.69h-5.71V120.73L389,86.49H396l24.72,29.28,24.59-29.28Z"/><path class="cls-2" d="M6,175.74v73.93H.25V175.74Z"/><path class="cls-2" d="M31.56,175.74H47q12.12,0,18.36,5.09t6.25,14q0,10.69-10.64,16.46Q78,215,78,230a17.34,17.34,0,0,1-6.69,14.32q-6.7,5.31-18.13,5.31H31.56Zm5.72,4.76V210h7.93q20.17,0,20.17-14.71T45,180.5Zm0,34.29V244.9H52.58q9.47,0,14.39-4.07a13.43,13.43,0,0,0,4.92-10.9q0-15.13-21.8-15.13Z"/><path class="cls-2" d="M138,175.74v4.76H103.36v29.58h33.71v4.82H103.36v30h35.46v4.76H97.65V175.74Z"/><path class="cls-2" d="M159.24,175.74h18.94q11.91,0,18.2,5.16t6.3,13.94q0,12.81-14.08,18,3.65,1.74,9.85,11.27l16.72,25.56h-6.77l-12.88-20.26q-6.45-10.17-10-12.68T175,214.21H165v35.45h-5.72ZM165,180.5v28.95h12.27q9.37,0,14.32-3.79t4.95-10.71a12.59,12.59,0,0,0-5-10.64q-5-3.81-14.45-3.81Z"/><path class="cls-2" d="M235.54,175.74v73.93h-5.71V175.74Z"/><path class="cls-2" d="M290.2,175.21l34.18,74.46h-6l-11.7-25.56H270.54l-11.65,25.56h-6l34.17-74.46Zm14.31,44.13-15.93-34.82L272.7,219.34Z"/><path class="cls-3" d="M491.8,202c-.86,1.49-22.76-36.44-21-36.44-1.72,0,20.18-37.93,21-36.44-.86-1.49,42.94-1.49,42.08,0,.86-1.49,22.76,36.44,21,36.44,1.72,0-20.18,37.93-21,36.44C534.74,203.53,490.95,203.53,491.8,202Z"/><path class="cls-4" d="M491.8,202c-.86,1.49-22.76-36.44-21-36.44-1.72,0,20.18-37.93,21-36.44-.86-1.49,42.94-1.49,42.08,0,.86-1.49,22.76,36.44,21,36.44,1.72,0-20.18,37.93-21,36.44C534.74,203.53,490.95,203.53,491.8,202Z"/><path class="cls-5" d="M493.51,114.26c-.86,1.49-22.76-36.44-21-36.44-1.72,0,20.18-37.93,21-36.44-.86-1.49,42.94-1.49,42.08,0,.86-1.49,22.76,36.44,21,36.44,1.72,0-20.18,37.94-21,36.45C536.45,115.75,492.65,115.75,493.51,114.26Z"/><path class="cls-6" d="M493.51,114.26c-.86,1.49-22.76-36.44-21-36.44-1.72,0,20.18-37.93,21-36.44-.86-1.49,42.94-1.49,42.08,0,.86-1.49,22.76,36.44,21,36.44,1.72,0-20.18,37.94-21,36.45C536.45,115.75,492.65,115.75,493.51,114.26Z"/><path class="cls-7" d="M569.1,158.61c-.86,1.49-22.76-36.44-21-36.44-1.72,0,20.18-37.94,21-36.45-.86-1.49,42.94-1.49,42.08,0,.86-1.49,22.76,36.45,21,36.45,1.72,0-20.18,37.92-21,36.44C612,160.09,568.24,160.09,569.1,158.61Z"/><path class="cls-8" d="M569.1,158.61c-.86,1.49-22.76-36.44-21-36.44-1.72,0,20.18-37.94,21-36.45-.86-1.49,42.94-1.49,42.08,0,.86-1.49,22.76,36.45,21,36.45,1.72,0-20.18,37.92-21,36.44C612,160.09,568.24,160.09,569.1,158.61Z"/></g></g></svg>